<svg width="26" height="17" viewBox="0 0 26 17" fill="none" xmlns="http://www.w3.org/2000/svg">
<path d="M11.4828 5.84441C11.4828 5.84441 9.38428 5.84441 8.11927 5.84441C7.27934 5.84441 5.68969 5.68966 4.83551 5.84441C3.98134 5.99916 1.55176 12.0345 1.55176 12.0345H2L3 10L5.34071 7.72834L8 9.5L9 12.0345H9.38225H15.9498V11.2271L20.2439 8.44828L21.9797 9.55172H22.5173L20.6358 6.24138L14.4182 10.3942C13.6332 10.9185 12.6288 11.0673 11.8241 10.5736C11.2268 10.2071 10.61 9.69761 10.3926 9.07401C9.89252 7.63945 11.4828 5.84441 11.4828 5.84441Z" fill="black"/>
<path d="M15.4446 1H18.2231L18.8515 2.6148M18.8515 2.6148H21.0017M18.8515 2.6148L20.6358 6.24138M20.6358 6.24138L22.5173 9.55172H21.9797L20.2439 8.44828L15.9498 11.2271V12.0345H9.38225H9L8 9.5L5.34071 7.72834L3 10L2 12.0345H1.55176C1.55176 12.0345 3.98134 5.99916 4.83551 5.84441C5.68969 5.68966 7.27934 5.84441 8.11927 5.84441C9.38428 5.84441 11.4828 5.84441 11.4828 5.84441C11.4828 5.84441 9.89253 7.63945 10.3926 9.07401C10.61 9.69761 11.2268 10.2071 11.8241 10.5736C12.6288 11.0673 13.6332 10.9185 14.4182 10.3942L20.6358 6.24138Z" stroke="black" stroke-width="2" stroke-linecap="round" stroke-linejoin="round"/>
<path d="M5.13806 3.48276H12.5863" stroke="black" stroke-linecap="round" stroke-linejoin="round"/>
<circle cx="20.8622" cy="12.5862" r="3" stroke="black" stroke-width="2.82759"/>
<circle cx="5.41379" cy="12.4138" r="3" stroke="black" stroke-width="2.82759"/>
<circle cx="11.4138" cy="11.4138" r="4" stroke="#F0EBEB" stroke-width="0.827586"/>
<circle cx="5.41379" cy="12.4138" r="4" stroke="#F0EBEB" stroke-width="0.827586"/>
</svg>
