<svg width="29" height="28" viewBox="0 0 29 28" fill="none" xmlns="http://www.w3.org/2000/svg">
<path d="M1.22034 10.5399L1.72 10.5214L1.71806 10.4693L1.70541 10.4186L1.22034 10.5399ZM14.6915 3.0516L14.3621 3.42773L14.6915 3.71626L15.021 3.42773L14.6915 3.0516ZM28.2145 10.3183L27.7259 10.2121L27.7136 10.2689L27.7146 10.327L28.2145 10.3183ZM1.70541 10.4186C1.57114 9.88174 1.5 9.32137 1.5 8.74468H0.5C0.5 9.40399 0.581382 10.0458 0.73528 10.6612L1.70541 10.4186ZM1.5 8.74468C1.5 4.76782 4.9044 1.5 9.15958 1.5V0.5C4.40193 0.5 0.5 4.167 0.5 8.74468H1.5ZM9.15958 1.5C11.1714 1.5 12.9979 2.23296 14.3621 3.42773L15.021 2.67546C13.4768 1.32308 11.417 0.5 9.15958 0.5V1.5ZM15.021 3.42773C16.3851 2.23296 18.2116 1.5 20.2235 1.5V0.5C17.9661 0.5 15.9062 1.32308 14.3621 2.67546L15.021 3.42773ZM20.2235 1.5C24.4787 1.5 27.8831 4.76782 27.8831 8.74468H28.8831C28.8831 4.167 24.9811 0.5 20.2235 0.5V1.5ZM27.8831 8.74468C27.8831 9.24786 27.8289 9.73856 27.7259 10.2121L28.7031 10.4246C28.8211 9.8818 28.8831 9.31987 28.8831 8.74468H27.8831ZM27.7146 10.327C27.7201 10.6476 27.5896 11.1508 27.2912 11.8289C26.9994 12.4922 26.5709 13.2705 26.0383 14.1221C24.9739 15.8242 23.5169 17.7826 21.9738 19.6395C20.4307 21.4965 18.8121 23.2393 17.4285 24.5132C16.7357 25.1511 16.1119 25.6621 15.5929 26.0103C15.3334 26.1845 15.1096 26.3114 14.9238 26.3934C14.7319 26.478 14.6128 26.5001 14.5532 26.5001V27.5001C14.8109 27.5001 15.0767 27.4189 15.3274 27.3083C15.5843 27.195 15.8611 27.0347 16.1501 26.8407C16.7284 26.4527 17.3942 25.9041 18.1059 25.2489C19.5312 23.9365 21.1806 22.1588 22.7429 20.2786C24.3054 18.3984 25.7914 16.403 26.8862 14.6523C27.4333 13.7775 27.8884 12.9546 28.2065 12.2317C28.5181 11.5236 28.7239 10.8555 28.7144 10.3096L27.7146 10.327ZM14.5532 26.5001C14.4923 26.5001 14.3743 26.4782 14.187 26.3951C14.0051 26.3144 13.7868 26.1893 13.5341 26.0173C13.0287 25.6732 12.4241 25.168 11.7537 24.5366C10.415 23.2757 8.85513 21.551 7.36487 19.7145C5.87498 17.8786 4.46471 15.9433 3.42211 14.265C2.90052 13.4254 2.47599 12.6581 2.17975 12.005C1.87723 11.3381 1.73182 10.8397 1.72 10.5214L0.720688 10.5585C0.740059 11.0799 0.954958 11.7257 1.26906 12.4181C1.58943 13.1244 2.03782 13.9317 2.57267 14.7927C3.64296 16.5156 5.07962 18.4854 6.58837 20.3447C8.09674 22.2034 9.68718 23.9639 11.0681 25.2645C11.7576 25.9139 12.4051 26.4584 12.9714 26.8439C13.2545 27.0367 13.5269 27.1963 13.7816 27.3092C14.0308 27.4197 14.2951 27.5001 14.5532 27.5001V26.5001Z" fill="#A4A0A0"/>
<path d="M9.29704 14.3345L14.3561 4.82544C14.4606 4.62907 14.7595 4.72433 14.7311 4.94494L13.8646 11.6684C13.8484 11.7943 13.952 11.9033 14.0785 11.8934L17.701 11.6102L12.7125 21.2892C12.6086 21.4907 12.3025 21.3912 12.3371 21.1671L13.4027 14.2601C13.4224 14.1327 13.318 14.0202 13.1895 14.0303L9.29704 14.3345Z" fill="#A4A0A0" stroke="#A4A0A0"/>
</svg>
