<?xml version="1.0" encoding="iso-8859-1"?>
<!-- Generator: Adobe Illustrator 19.0.0, SVG Export Plug-In . SVG Version: 6.00 Build 0)  -->
<svg version="1.1" id="Layer_1" xmlns="http://www.w3.org/2000/svg" xmlns:xlink="http://www.w3.org/1999/xlink" x="0px" y="0px"
	 viewBox="0 0 495 495" style="enable-background:new 0 0 495 495;" xml:space="preserve">
<g>
	<path style="fill:#FF0C38;" d="M280.137,292.115c37.261-6.625,65.558-39.176,65.558-78.341h64.992h18.679L410.687,495H84.313
		L65.634,213.775h18.679h65.275c0,39.067,28.155,71.563,65.275,78.286c4.635,0.849,9.41,1.284,14.295,1.284h36.956
		C270.901,293.345,275.59,292.92,280.137,292.115z"/>
	<path style="fill:#D80027;" d="M410.687,213.775h-64.992c0,39.165-28.297,71.715-65.557,78.341
		c-4.548,0.805-9.236,1.229-14.023,1.229H247.5V495h163.187l18.679-281.225H410.687z"/>
	<path style="fill:#FFDA44;" d="M214.863,32.637v259.424c-37.12-6.723-65.275-39.219-65.275-78.286V32.637H214.863z"/>
	<path style="fill:#FFDA44;" d="M345.412,213.775h0.283c0,39.165-28.297,71.715-65.558,78.341V32.637h65.275V213.775z"/>
	<rect x="84.313" style="fill:#FFCD00;" width="65.275" height="213.775"/>
	<path style="fill:#FFCD00;" d="M280.137,292.115c-4.547,0.805-9.236,1.229-14.023,1.229h-36.956c-4.885,0-9.661-0.435-14.295-1.284
		V0h65.275V292.115z"/>
	<polygon style="fill:#FFCD00;" points="410.687,0 410.687,213.775 345.695,213.775 345.412,213.775 345.412,0 	"/>
</g>
<g>
</g>
<g>
</g>
<g>
</g>
<g>
</g>
<g>
</g>
<g>
</g>
<g>
</g>
<g>
</g>
<g>
</g>
<g>
</g>
<g>
</g>
<g>
</g>
<g>
</g>
<g>
</g>
<g>
</g>
</svg>
