<svg width="69" height="66" viewBox="0 0 69 66" fill="none" xmlns="http://www.w3.org/2000/svg">
<path d="M12.6495 59.5C7.44952 60.3 3.14952 62.5 1.64952 63.5C0.149519 63.5 1.64952 65.5 2.14952 65.5C2.54952 65.5 11.3162 64.1667 15.6495 63.5C16.8162 61.8333 17.8495 58.7 12.6495 59.5Z" fill="white"/>
<path d="M34.1495 63.5C32.5495 64.3 24.8162 63.1667 21.1495 62.5C23.1495 60.6667 27.3495 57 28.1495 57C29.1495 57 36.1495 62.5 34.1495 63.5Z" fill="white"/>
<path d="M12.6495 59.5C7.44952 60.3 3.14952 62.5 1.64952 63.5C0.149519 63.5 1.64952 65.5 2.14952 65.5C2.54952 65.5 11.3162 64.1667 15.6495 63.5C16.8162 61.8333 17.8495 58.7 12.6495 59.5Z" stroke="white" stroke-width="0.5"/>
<path d="M34.1495 63.5C32.5495 64.3 24.8162 63.1667 21.1495 62.5C23.1495 60.6667 27.3495 57 28.1495 57C29.1495 57 36.1495 62.5 34.1495 63.5Z" stroke="white" stroke-width="0.5"/>
<path d="M15.6496 13C14.0496 13 13.9829 18.6667 14.1496 21.5L17.6495 20.5L18.6495 15.5C19.1495 15.6667 20.1495 15.7 20.1495 14.5C20.1495 13 17.6496 13 15.6496 13Z" fill="#D3AC88"/>
<path d="M62.6495 63.5C56.6495 63.9 55.8162 61.6667 56.1495 60.5C57.4829 59.8333 60.0495 58.7 59.6495 59.5C59.2495 60.3 60.4829 61.1667 61.1495 61.5C61.8162 61.6667 63.5495 61.9 65.1495 61.5C66.7495 61.1 67.1495 62 67.1495 62.5C68.1495 62.6667 68.6495 63.1 62.6495 63.5Z" fill="#D3AC88"/>
<path d="M15.6496 13C14.0496 13 13.9829 18.6667 14.1496 21.5L17.6495 20.5L18.6495 15.5C19.1495 15.6667 20.1495 15.7 20.1495 14.5C20.1495 13 17.6496 13 15.6496 13Z" stroke="#D3AC88" stroke-width="0.5"/>
<path d="M62.6495 63.5C56.6495 63.9 55.8162 61.6667 56.1495 60.5C57.4829 59.8333 60.0495 58.7 59.6495 59.5C59.2495 60.3 60.4829 61.1667 61.1495 61.5C61.8162 61.6667 63.5495 61.9 65.1495 61.5C66.7495 61.1 67.1495 62 67.1495 62.5C68.1495 62.6667 68.6495 63.1 62.6495 63.5Z" stroke="#D3AC88" stroke-width="0.5"/>
<path d="M38.2582 23.7742L39.7582 19.7742L43.2582 20.7742L47.7582 29.2742C49.4248 28.7742 52.7582 27.3742 52.7582 25.7742C52.7582 23.7742 49.7582 19.7742 52.7582 20.7742C55.7582 21.7742 57.7582 19.7742 56.7582 18.7742C55.9582 17.9742 57.796 15.9418 56.7582 14.7742C56.0596 13.9883 55.0582 18.5742 54.2582 13.7742C53.2582 7.77423 51.2582 8.27423 50.7582 9.27423C50.2582 10.2742 49.2582 6.27423 47.7582 3.27423C46.2582 0.274227 41.2582 0.774227 41.2582 1.77423C41.2582 2.77423 38.2582 2.77423 36.7582 3.27423C35.2582 3.77423 33.7582 6.77423 34.2582 8.27423C34.6582 9.47423 35.4248 10.7742 35.7582 11.2742C35.5915 12.2742 35.0582 14.3742 34.2582 14.7742C33.2582 15.2742 33.7582 17.7742 33.7582 18.7742C33.7582 19.5742 34.7582 19.7742 35.2582 19.7742L34.2582 23.7742H38.2582Z" fill="black" stroke="black"/>
<path d="M39.7582 19.2742V23.2742L38.2582 27.2742L41.2582 31.7742L47.7582 28.2742L45.7582 23.2742L44.7582 20.2742L44.2582 17.2742L39.7582 19.2742Z" fill="#D3AC88" stroke="#D3AC88"/>
<path d="M41.7582 6.27423C41.3582 7.47423 41.9249 8.77422 42.7582 9.77422C43.7583 11.1536 45.2582 10.7742 46.2582 10.7742C47.2582 10.7742 47.2582 12.1931 47.2582 13.7742C47.2582 14.2742 46.2582 15.6076 45.2582 15.7742C45.7582 16.7742 44.6582 18.8742 42.2582 19.2742C39.2582 19.7742 37.7582 19.7742 36.7582 17.7742C35.7582 15.7742 36.7582 11.7742 36.2582 10.7742C35.7582 9.77423 36.7582 6.27422 37.2582 5.27422C37.7582 4.27422 42.2582 4.77423 41.7582 6.27423Z" fill="#D3AC88" stroke="#D3AC88"/>
<path d="M39.7582 15.7742C40.2582 16.2742 41.4582 16.9742 42.2582 15.7742" stroke="#B69272" stroke-width="0.5"/>
<path d="M37.2582 9.48011C38.3832 8.53894 39.5082 8.53894 39.8832 9.48011C40.3863 10.7428 38.3832 13.2448 38.7582 14.186C39.1332 15.1272 40.2582 14.6566 40.2582 14.6566" stroke="#B69272" stroke-width="0.5"/>
<path d="M26.7582 47.2742L31.7582 44.7742V35.2742C29.2582 37.4409 23.9582 41.8742 22.7582 42.2742C21.2582 42.7742 14.2582 44.7742 14.2582 37.2742C14.2582 31.2742 13.5915 23.7742 13.2582 20.7742L19.2582 19.2742C19.8759 24.525 20.9802 34.7271 20.8207 36.5145C21.5905 34.6757 27.1258 24.1692 30.2582 23.2742C33.7582 22.2742 36.7582 21.2742 38.2582 21.7742C39.7582 22.2742 39.2582 25.2742 39.7582 26.2742C40.1582 27.0742 43.9248 27.4409 45.2582 27.2742C46.2582 25.9409 48.5582 23.2742 49.7582 23.2742C51.2582 23.2742 54.7582 24.7742 55.7582 32.7742C56.7582 40.7742 59.2582 52.2742 59.7582 54.7742C60.1582 56.7742 60.9248 59.2742 61.2582 60.2742L55.7582 61.2742L51.2582 43.2742C50.7582 41.2742 48.7582 33.7742 48.7582 32.7742V40.2742C48.7582 42.6742 46.4248 47.6076 45.2582 49.7742L38.2582 45.7742L30.2582 50.7742L26.7582 47.2742Z" fill="#EDD925"/>
<path d="M31.7582 30.7742V35.2742M31.7582 35.2742V44.7742L26.7582 47.2742L30.2582 50.7742L38.2582 45.7742L45.2582 49.7742C46.4248 47.6076 48.7582 42.6742 48.7582 40.2742C48.7582 37.2742 48.7582 31.7742 48.7582 32.7742C48.7582 33.7742 50.7582 41.2742 51.2582 43.2742C51.6582 44.8742 54.4248 55.9409 55.7582 61.2742L61.2582 60.2742C60.9248 59.2742 60.1582 56.7742 59.7582 54.7742C59.2582 52.2742 56.7582 40.7742 55.7582 32.7742C54.7582 24.7742 51.2582 23.2742 49.7582 23.2742C48.5582 23.2742 46.2582 25.9409 45.2582 27.2742C43.9248 27.4409 40.1582 27.0742 39.7582 26.2742C39.2582 25.2742 39.7582 22.2742 38.2582 21.7742C36.7582 21.2742 33.7582 22.2742 30.2582 23.2742C26.7582 24.2742 20.2582 37.2742 20.7582 36.7742C21.1582 36.3742 19.9248 24.9409 19.2582 19.2742L13.2582 20.7742C13.5915 23.7742 14.2582 31.2742 14.2582 37.2742C14.2582 44.7742 21.2582 42.7742 22.7582 42.2742C23.9582 41.8742 29.2582 37.4409 31.7582 35.2742Z" stroke="#EDD925"/>
<path d="M1.25828 47.7742C2.25822 53.2742 8.75825 55.9409 11.7583 58.7742L14.2584 64.2742C19.0918 62.6076 28.7584 59.5742 28.7584 60.7742C28.7584 62.2742 44.7582 70.7742 46.2582 58.7742C47.7582 46.7742 43.7584 44.7742 39.7584 43.7742C36.5584 42.9742 30.5917 47.2742 28.7584 48.7742C27.4251 47.7742 22.1584 44.3742 13.7584 42.7742C3.25835 40.7742 0.537208 43.8081 1.25828 47.7742Z" fill="black" stroke="black"/>
<g filter="url(#filter0_f_102_1235)">
<path d="M9.64954 43.5L21.6495 53" stroke="#817070" stroke-opacity="0.5" stroke-width="0.5"/>
</g>
<g filter="url(#filter1_f_102_1235)">
<path d="M15.401 58.3423C20.9271 54.7036 32.3626 47.5779 33.8962 48.1847" stroke="#817070" stroke-opacity="0.5" stroke-width="0.5"/>
</g>
<circle cx="41.7582" cy="10.2742" r="0.5" fill="black"/>
<circle cx="38.7582" cy="10.2742" r="0.5" fill="black"/>
<path d="M22.6495 7.5C22.2495 6.7 18.6495 8 17.1495 9L19.1495 20C20.9829 19.8333 23.3495 19.4 24.1495 19C25.1495 18.5 23.1495 8.5 22.6495 7.5Z" fill="#3C3636" stroke="black" stroke-width="0.5"/>
<defs>
<filter id="filter0_f_102_1235" x="7.49438" y="41.304" width="16.3103" height="13.892" filterUnits="userSpaceOnUse" color-interpolation-filters="sRGB">
<feFlood flood-opacity="0" result="BackgroundImageFix"/>
<feBlend mode="normal" in="SourceGraphic" in2="BackgroundImageFix" result="shape"/>
<feGaussianBlur stdDeviation="1" result="effect1_foregroundBlur_102_1235"/>
</filter>
<filter id="filter1_f_102_1235" x="13.2634" y="45.8982" width="22.7247" height="14.6528" filterUnits="userSpaceOnUse" color-interpolation-filters="sRGB">
<feFlood flood-opacity="0" result="BackgroundImageFix"/>
<feBlend mode="normal" in="SourceGraphic" in2="BackgroundImageFix" result="shape"/>
<feGaussianBlur stdDeviation="1" result="effect1_foregroundBlur_102_1235"/>
</filter>
</defs>
</svg>
