<?xml version="1.0" encoding="iso-8859-1"?>
<!-- Generator: Adobe Illustrator 19.0.0, SVG Export Plug-In . SVG Version: 6.00 Build 0)  -->
<svg version="1.1" id="Layer_1" xmlns="http://www.w3.org/2000/svg" xmlns:xlink="http://www.w3.org/1999/xlink" x="0px" y="0px"
	 viewBox="0 0 495 495" style="enable-background:new 0 0 495 495;" xml:space="preserve">
<g>
	<path style="fill:#FFCD00;" d="M145.5,142.96h129.146c-9.427-50.977-54.209-89.71-107.873-89.71
		c-60.492,0-109.705,49.214-109.705,109.705c0,55.991,42.165,102.313,96.409,108.897l-2.406-38.893L145.5,142.96z"/>
	<polygon style="fill:#46F8FF;" points="418.61,232.96 424.09,142.96 344.96,142.96 344.96,232.96 	"/>
	<rect x="284.84" y="142.96" style="fill:#46F8FF;" width="20.12" height="90"/>
	<polygon style="fill:#91DC5A;" points="344.96,475 304.96,475 304.96,232.96 284.84,232.96 284.84,495 402.66,495 418.61,232.96 
		344.96,232.96 	"/>
	<polygon style="fill:#B6E892;" points="151.07,232.96 153.476,271.853 167.28,495 284.84,495 284.84,232.96 	"/>
	<polygon style="fill:#BDFDFF;" points="151.07,232.96 284.84,232.96 284.84,142.96 145.5,142.96 	"/>
	<rect x="304.96" y="232.96" style="fill:#B6E892;" width="40" height="242.04"/>
	<path style="fill:#00E7F0;" d="M437.933,40V0H339.96c-19.299,0-35,15.701-35,35v197.96h40V40H437.933z"/>
</g>
<g>
</g>
<g>
</g>
<g>
</g>
<g>
</g>
<g>
</g>
<g>
</g>
<g>
</g>
<g>
</g>
<g>
</g>
<g>
</g>
<g>
</g>
<g>
</g>
<g>
</g>
<g>
</g>
<g>
</g>
</svg>
