<svg width="16" height="16" viewBox="0 0 16 16" fill="none" xmlns="http://www.w3.org/2000/svg">
<path d="M3 4V5.58579C3 5.851 2.89464 6.10536 2.70711 6.29289L1.70711 7.29289C1.31658 7.68342 1.31658 8.31658 1.70711 8.70711L2.70711 9.70711C2.89464 9.89464 3 10.149 3 10.4142V12C3 12.5523 3.44772 13 4 13H5.58579C5.851 13 6.10536 13.1054 6.29289 13.2929L7.29289 14.2929C7.68342 14.6834 8.31658 14.6834 8.70711 14.2929L9.70711 13.2929C9.89464 13.1054 10.149 13 10.4142 13H12C12.5523 13 13 12.5523 13 12V10.4142C13 10.149 13.1054 9.89464 13.2929 9.70711L14.2929 8.70711C14.6834 8.31658 14.6834 7.68342 14.2929 7.29289L13.2929 6.29289C13.1054 6.10536 13 5.851 13 5.58579V4C13 3.44772 12.5523 3 12 3H10.4142C10.149 3 9.89464 2.89464 9.70711 2.70711L8.70711 1.70711C8.31658 1.31658 7.68342 1.31658 7.29289 1.70711L6.29289 2.70711C6.10536 2.89464 5.851 3 5.58579 3H4C3.44772 3 3 3.44772 3 4Z" stroke="#1A30F3"/>
<line x1="4.64645" y1="10.6464" x2="10.6464" y2="4.64645" stroke="#1A30F3"/>
<circle cx="5.5" cy="6.5" r="0.5" fill="#1A30F3"/>
<circle cx="9.5" cy="9.5" r="0.5" fill="#1A30F3"/>
</svg>
