<svg width="28" height="27" viewBox="0 0 28 27" fill="none" xmlns="http://www.w3.org/2000/svg">
<path d="M7.71947 9.12714C7.94431 9.40984 8.32943 10.1195 8.77461 11.0865C9.21099 12.0343 9.68271 13.1794 10.0846 14.292C10.4881 15.409 10.814 16.4738 10.9672 17.2671C11.045 17.6694 11.0709 17.9662 11.0558 18.1535C11.0543 18.1714 11.0526 18.187 11.0508 18.2004L7.42681 19.1485L7.42473 19.1491L7.41855 19.1507L7.39434 19.157L7.30158 19.1813L6.96304 19.2699L5.8688 19.5562L3.75747 20.1085C3.75491 20.1044 3.75228 20.1 3.74959 20.0955C3.65193 19.9307 3.53728 19.6511 3.41524 19.2601C3.17438 18.4882 2.94013 17.4 2.74327 16.232C2.54701 15.0676 2.39081 13.8413 2.30264 12.8004C2.2126 11.7373 2.19943 10.9277 2.26297 10.5599C2.54763 8.91239 3.47464 7.83919 4.40435 7.59596C5.33396 7.35275 6.72267 7.87379 7.71947 9.12714Z" stroke="#A4A0A0"/>
<path d="M4.89845 23.6193C4.68886 23.1532 4.75689 22.6856 5.02265 22.2769C5.29522 21.8576 5.77458 21.5102 6.34496 21.3586L7.88189 20.9501L9.33874 20.563C9.9586 20.3982 10.6013 20.4863 11.0791 20.7579C11.5463 21.0234 11.8478 21.4545 11.8616 22.0204C11.8736 22.509 11.8026 22.9156 11.6388 23.1971C11.2591 23.85 10.9075 24.3195 10.512 24.666C10.1231 25.0067 9.67146 25.246 9.06622 25.4069C8.41953 25.5787 7.91248 25.6506 7.41685 25.5745C6.92718 25.4994 6.39744 25.2715 5.73005 24.7522C5.37451 24.4756 5.10265 24.0734 4.89845 23.6193Z" stroke="#A4A0A0"/>
<path d="M20.9573 6.75866C21.0593 7.10514 21.1495 7.9075 21.1986 8.9709C21.2467 10.0133 21.2534 11.2517 21.2076 12.4337C21.1617 13.6205 21.0635 14.7298 20.9073 15.5225C20.8281 15.9245 20.7406 16.2093 20.6562 16.3772C20.6481 16.3932 20.6407 16.407 20.6339 16.4187L16.9193 15.9352L16.9172 15.9349L16.9108 15.9341L16.886 15.9309L16.791 15.9185L16.4439 15.8733L15.3223 15.7273L13.1582 15.4456C13.1574 15.4408 13.1566 15.4357 13.1558 15.4305C13.1272 15.2411 13.1261 14.939 13.16 14.5307C13.2269 13.7249 13.4189 12.6284 13.6755 11.4721C13.9313 10.3193 14.2474 9.12427 14.557 8.12649C14.8731 7.10751 15.1652 6.35232 15.3623 6.03542C16.2454 4.61569 17.5078 3.96963 18.4608 4.09369C19.4136 4.21773 20.5046 5.22255 20.9573 6.75866Z" stroke="#A4A0A0"/>
<path d="M12.8957 19.1279C12.8767 18.6172 13.1155 18.2094 13.5154 17.9305C13.9256 17.6445 14.5003 17.5027 15.0859 17.5766L16.6636 17.7758L18.1592 17.9646C18.7955 18.0449 19.358 18.3681 19.6987 18.7994C20.0318 19.2211 20.1491 19.7339 19.9493 20.2635C19.7767 20.7208 19.5581 21.0708 19.3005 21.2702C18.7032 21.7324 18.2009 22.0353 17.7042 22.2078C17.2158 22.3773 16.7073 22.4293 16.086 22.3509C15.4221 22.2671 14.9252 22.1431 14.4945 21.8863C14.069 21.6326 13.6638 21.2223 13.2405 20.4903C13.015 20.1003 12.9142 19.6254 12.8957 19.1279Z" stroke="#A4A0A0"/>
</svg>
