<?xml version="1.0" encoding="iso-8859-1"?>
<!-- Generator: Adobe Illustrator 19.0.0, SVG Export Plug-In . SVG Version: 6.00 Build 0)  -->
<svg version="1.1" id="Layer_1" xmlns="http://www.w3.org/2000/svg" xmlns:xlink="http://www.w3.org/1999/xlink" x="0px" y="0px"
	 viewBox="0 0 495 495" style="enable-background:new 0 0 495 495;" xml:space="preserve">
<g>
	<path style="fill:#830018;" d="M247.5,495c11.33,0,21.79-3.77,30.21-10.13c8.41,6.36,18.87,10.13,30.2,10.13
		c27.68,0,50.21-22.52,50.21-50.21V395H247.5V495z"/>
	<rect x="247.5" y="278.42" style="fill:#D80027;" width="110.62" height="116.58"/>
	<path style="fill:#830018;" d="M334.79,204.34c15.1-16.96,23.33-37.84,23.33-59.63c0-35.64-21.71-67.59-56.38-84.56V40H247.5
		v238.42h110.62c0-20.76-8.57-40.6-23.33-54.88V204.34z"/>
	<path style="fill:#A30020;" d="M136.88,395v49.79c0,27.69,22.53,50.21,50.21,50.21c11.33,0,21.79-3.77,30.2-10.13
		c8.42,6.36,18.88,10.13,30.21,10.13V395H136.88z"/>
	<rect x="136.88" y="278.42" style="fill:#FF0C38;" width="110.62" height="116.58"/>
	<path style="fill:#A30020;" d="M247.5,40h-54.24v20.15c-34.67,16.97-56.38,48.92-56.38,84.56c0,21.79,8.23,42.67,23.33,59.63v19.2
		c-14.76,14.28-23.33,34.12-23.33,54.88H247.5V40z"/>
	<rect x="183.259" style="fill:#FF0C38;" width="128.482" height="40"/>
</g>
<g>
</g>
<g>
</g>
<g>
</g>
<g>
</g>
<g>
</g>
<g>
</g>
<g>
</g>
<g>
</g>
<g>
</g>
<g>
</g>
<g>
</g>
<g>
</g>
<g>
</g>
<g>
</g>
<g>
</g>
</svg>
